<svg xmlns="http://www.w3.org/2000/svg" width="407" height="454" fill="none"><mask id="a" width="407" height="455" x="0" y="-1" maskUnits="userSpaceOnUse" style="mask-type:luminance"><path fill="#fff" d="M407 453.77H0V-.198h407z"/></mask><g fill="#93C5FD" mask="url(#a)"><path d="M21.325 431.072q-.977 0-.977-1.09 0 1.09-.977 1.09.977 0 .977 1.089 0-1.089.977-1.089M21.718 385.675q-1.368 0-1.368-1.525 0 1.524-1.368 1.525 1.368 0 1.368 1.525 0-1.525 1.367-1.525M22.108 340.278q-1.758 0-1.758-1.961 0 1.96-1.758 1.961 1.758 0 1.758 1.961 0-1.96 1.758-1.961M22.497 294.881q-2.15 0-2.149-2.397 0 2.397-2.149 2.397 2.15 0 2.15 2.397 0-2.397 2.148-2.397M22.888 249.484q-2.54 0-2.54-2.832 0 2.832-2.54 2.832 2.54 0 2.54 2.833 0-2.833 2.54-2.833M23.28 204.088q-2.93 0-2.93-3.269 0 3.269-2.93 3.269 2.93 0 2.93 3.268 0-3.268 2.93-3.268M23.672 158.691q-3.322 0-3.322-3.705 0 3.705-3.32 3.705 3.32 0 3.32 3.704 0-3.705 3.322-3.704M24.062 113.294q-3.712 0-3.712-4.14 0 4.14-3.711 4.14 3.711 0 3.712 4.14 0-4.14 3.711-4.14M24.451 67.897q-4.102 0-4.102-4.576 0 4.575-4.103 4.576 4.103 0 4.103 4.576 0-4.576 4.102-4.576M24.842 22.5q-4.493 0-4.493-5.011 0 5.01-4.494 5.011 4.494 0 4.494 5.012 0-5.012 4.493-5.012M62.393 431.071q-1.343 0-1.343-1.498 0 1.498-1.343 1.498 1.343 0 1.343 1.499 0-1.499 1.343-1.499M62.929 385.675q-1.88 0-1.88-2.097 0 2.097-1.881 2.097 1.88 0 1.88 2.097 0-2.097 1.88-2.097M63.466 340.278q-2.418 0-2.418-2.697 0 2.697-2.417 2.697 2.418 0 2.417 2.697 0-2.697 2.418-2.697M64.003 294.881q-2.954 0-2.954-3.296 0 3.296-2.955 3.296 2.955 0 2.955 3.296 0-3.296 2.954-3.296M64.54 249.484q-3.49 0-3.491-3.895 0 3.895-3.492 3.895 3.492 0 3.492 3.895 0-3.895 3.492-3.895M65.078 204.088q-4.03 0-4.03-4.495 0 4.495-4.029 4.495 4.03 0 4.03 4.494 0-4.494 4.03-4.494M65.618 158.691q-4.567 0-4.567-5.094 0 5.094-4.567 5.094 4.567 0 4.567 5.093 0-5.093 4.567-5.093M66.153 113.294q-5.104 0-5.104-5.693 0 5.693-5.104 5.693 5.104 0 5.104 5.693 0-5.693 5.104-5.693M66.69 67.897q-5.64 0-5.64-6.292 0 6.292-5.642 6.292 5.64 0 5.641 6.292 0-6.292 5.641-6.292M67.228 22.5q-6.18 0-6.179-6.89 0 6.89-6.178 6.89 6.178 0 6.178 6.892 0-6.892 6.179-6.892M103.458 431.072q-1.71 0-1.71-1.907 0 1.907-1.709 1.907 1.71 0 1.709 1.906 0-1.906 1.71-1.906M104.142 385.675q-2.394 0-2.393-2.67 0 2.67-2.393 2.67 2.393 0 2.393 2.669 0-2.67 2.393-2.669M104.826 340.278q-3.078 0-3.077-3.432 0 3.432-3.077 3.432 3.077 0 3.077 3.432 0-3.432 3.077-3.432M105.51 294.881q-3.76 0-3.761-4.195 0 4.195-3.76 4.195 3.76 0 3.76 4.195 0-4.195 3.761-4.195M106.194 249.484q-4.445 0-4.445-4.957 0 4.957-4.444 4.957 4.444 0 4.444 4.958 0-4.958 4.445-4.958M106.877 204.088q-5.128 0-5.128-5.72 0 5.72-5.128 5.72 5.128 0 5.128 5.72 0-5.72 5.128-5.72M107.561 158.691q-5.811 0-5.812-6.483 0 6.483-5.811 6.483 5.811 0 5.811 6.482 0-6.482 5.812-6.482M108.245 113.294q-6.495 0-6.495-7.246 0 7.246-6.496 7.246 6.496 0 6.496 7.245 0-7.245 6.495-7.245M108.929 67.897q-7.179 0-7.179-8.008 0 8.008-7.18 8.008 7.18 0 7.18 8.008 0-8.008 7.179-8.008M109.613 22.5q-7.863 0-7.863-8.77 0 8.77-7.863 8.77 7.863 0 7.863 8.771 0-8.77 7.863-8.77M144.526 431.071q-2.075 0-2.075-2.315 0 2.316-2.076 2.315 2.076 0 2.076 2.316 0-2.316 2.075-2.316M145.355 385.675q-2.906 0-2.906-3.242 0 3.242-2.906 3.242 2.906 0 2.906 3.241 0-3.241 2.906-3.241M146.185 340.278q-3.736 0-3.736-4.168 0 4.168-3.736 4.168 3.736 0 3.736 4.167 0-4.167 3.736-4.167M147.016 294.881q-4.566 0-4.567-5.093 0 5.093-4.566 5.093 4.566 0 4.566 5.094 0-5.094 4.567-5.094M147.846 249.484q-5.397 0-5.396-6.019 0 6.02-5.397 6.019 5.397 0 5.397 6.02 0-6.02 5.396-6.02M148.677 204.087q-6.227 0-6.227-6.945 0 6.945-6.227 6.945 6.227 0 6.227 6.946 0-6.946 6.227-6.946M149.507 158.691q-7.057 0-7.057-7.872 0 7.872-7.057 7.872 7.057 0 7.057 7.871 0-7.87 7.057-7.871M150.338 113.294q-7.888 0-7.888-8.798 0 8.798-7.888 8.798 7.888 0 7.888 8.798 0-8.798 7.888-8.798M151.166 67.897q-8.718 0-8.718-9.724 0 9.724-8.718 9.724 8.718 0 8.718 9.724 0-9.724 8.718-9.724M151.999 22.5q-9.549 0-9.548-10.65 0 10.65-9.549 10.65 9.549 0 9.549 10.65 0-10.65 9.548-10.65M185.591 431.072q-2.442 0-2.442-2.724 0 2.724-2.442 2.724 2.442 0 2.442 2.723 0-2.723 2.442-2.723M186.568 385.675q-3.419 0-3.419-3.814 0 3.814-3.419 3.814 3.42 0 3.419 3.813 0-3.813 3.419-3.813M187.545 340.278q-4.395 0-4.395-4.903 0 4.903-4.396 4.903 4.395 0 4.396 4.903 0-4.903 4.395-4.903M188.522 294.881q-5.372 0-5.372-5.992 0 5.992-5.373 5.992 5.373 0 5.373 5.993 0-5.993 5.372-5.993M189.499 249.484q-6.35 0-6.349-7.082 0 7.083-6.349 7.082 6.35 0 6.349 7.082 0-7.082 6.349-7.082M190.476 204.087q-7.326 0-7.326-8.171 0 8.171-7.326 8.171 7.326 0 7.326 8.172 0-8.172 7.326-8.172M191.451 158.691q-8.302 0-8.302-9.261 0 9.261-8.303 9.261 8.303 0 8.303 9.261 0-9.261 8.302-9.261M192.428 113.294q-9.279 0-9.279-10.351 0 10.351-9.28 10.351 9.28 0 9.28 10.35 0-10.35 9.279-10.35M193.405 67.897q-10.256 0-10.256-11.44 0 11.44-10.256 11.44 10.256 0 10.256 11.44 0-11.44 10.256-11.44M194.382 22.5q-11.233 0-11.233-12.53 0 12.53-11.233 12.53 11.233 0 11.233 12.53 0-12.53 11.233-12.53M226.29 431.072q-2.442 0-2.442-2.724 0 2.724-2.442 2.724 2.442 0 2.442 2.723 0-2.723 2.442-2.723M227.267 385.675q-3.419 0-3.419-3.814 0 3.814-3.418 3.814 3.418 0 3.418 3.813 0-3.813 3.419-3.813M228.244 340.278q-4.395 0-4.395-4.903 0 4.903-4.396 4.903 4.396 0 4.396 4.903 0-4.903 4.395-4.903M229.221 294.881q-5.372 0-5.372-5.992 0 5.992-5.372 5.992 5.372 0 5.372 5.993 0-5.993 5.372-5.993M230.198 249.484q-6.349 0-6.349-7.082 0 7.083-6.349 7.082 6.35 0 6.349 7.082 0-7.082 6.349-7.082M231.175 204.087q-7.326 0-7.326-8.171 0 8.171-7.326 8.171 7.326 0 7.326 8.172 0-8.172 7.326-8.172M232.152 158.691q-8.302 0-8.302-9.261 0 9.261-8.303 9.261 8.303 0 8.303 9.261 0-9.261 8.302-9.261M233.13 113.294q-9.28 0-9.28-10.351 0 10.351-9.28 10.351 9.28 0 9.28 10.35 0-10.35 9.28-10.35M234.107 67.897q-10.257 0-10.257-11.44 0 11.44-10.256 11.44 10.256 0 10.256 11.44 0-11.44 10.257-11.44M235.084 22.5q-11.234 0-11.234-12.529 0 12.53-11.233 12.53 11.233 0 11.233 12.529 0-12.53 11.234-12.53M266.624 431.071q-2.076 0-2.076-2.315 0 2.316-2.075 2.315 2.075 0 2.075 2.316 0-2.316 2.076-2.316M267.457 385.675q-2.906 0-2.906-3.242 0 3.242-2.906 3.242 2.906 0 2.906 3.241 0-3.241 2.906-3.241M268.285 340.278q-3.736 0-3.736-4.168 0 4.168-3.737 4.168 3.737 0 3.737 4.167 0-4.167 3.736-4.167M269.116 294.881q-4.567 0-4.567-5.093 0 5.093-4.567 5.093 4.567 0 4.567 5.094 0-5.094 4.567-5.094M269.946 249.484q-5.397 0-5.397-6.019 0 6.02-5.397 6.019 5.397 0 5.397 6.02 0-6.02 5.397-6.02M270.776 204.087q-6.227 0-6.227-6.945 0 6.945-6.227 6.945 6.227 0 6.227 6.946 0-6.946 6.227-6.946M271.607 158.691q-7.057 0-7.057-7.872 0 7.872-7.058 7.872 7.058 0 7.058 7.871 0-7.87 7.057-7.871M272.437 113.294q-7.887 0-7.887-8.798 0 8.798-7.888 8.798 7.888 0 7.888 8.798 0-8.798 7.887-8.798M273.268 67.897q-8.718 0-8.718-9.724 0 9.724-8.718 9.724 8.718 0 8.718 9.724 0-9.724 8.718-9.724M274.096 22.5q-9.548 0-9.548-10.65 0 10.65-9.548 10.65 9.548 0 9.548 10.65 0-10.65 9.548-10.65M306.958 431.072q-1.71 0-1.71-1.907 0 1.907-1.709 1.907 1.71 0 1.709 1.906 0-1.906 1.71-1.906M307.642 385.675q-2.394 0-2.393-2.67 0 2.67-2.394 2.67 2.394 0 2.394 2.669 0-2.67 2.393-2.669M308.326 340.278q-3.077 0-3.077-3.432 0 3.432-3.077 3.432 3.077 0 3.077 3.432 0-3.432 3.077-3.432M309.01 294.881q-3.76 0-3.761-4.195 0 4.195-3.761 4.195 3.76 0 3.761 4.195 0-4.195 3.761-4.195M309.694 249.484q-4.445 0-4.445-4.957 0 4.957-4.444 4.957 4.444 0 4.444 4.958 0-4.958 4.445-4.958M310.377 204.088q-5.127 0-5.128-5.72 0 5.72-5.128 5.72 5.128 0 5.128 5.72 0-5.72 5.128-5.72M311.061 158.691q-5.812 0-5.812-6.483 0 6.483-5.811 6.483 5.811 0 5.811 6.483 0-6.483 5.812-6.483M311.745 113.294q-6.495 0-6.495-7.246 0 7.246-6.496 7.246 6.495 0 6.496 7.245 0-7.245 6.495-7.245M312.429 67.897q-7.179 0-7.179-8.008 0 8.008-7.18 8.008 7.18 0 7.18 8.008 0-8.008 7.179-8.008M313.113 22.5q-7.863 0-7.863-8.77 0 8.77-7.863 8.77 7.863 0 7.863 8.771 0-8.77 7.863-8.77M347.292 431.071q-1.344 0-1.343-1.498 0 1.498-1.344 1.498 1.344 0 1.344 1.499 0-1.499 1.343-1.499M347.831 385.675q-1.88 0-1.88-2.097 0 2.097-1.881 2.097 1.881 0 1.881 2.097 0-2.097 1.88-2.097M348.366 340.278q-2.417 0-2.417-2.697 0 2.697-2.418 2.697 2.418 0 2.418 2.697 0-2.697 2.417-2.697M348.906 294.881q-2.955 0-2.955-3.296 0 3.296-2.955 3.296 2.955 0 2.955 3.296 0-3.296 2.955-3.296M349.441 249.484q-3.492 0-3.492-3.895 0 3.895-3.492 3.895 3.492 0 3.492 3.895 0-3.895 3.492-3.895M349.977 204.088q-4.03 0-4.03-4.495 0 4.495-4.029 4.495 4.029 0 4.029 4.494 0-4.494 4.03-4.494M350.516 158.691q-4.567 0-4.567-5.094 0 5.094-4.566 5.094 4.566 0 4.566 5.093 0-5.093 4.567-5.093M351.051 113.294q-5.103 0-5.103-5.693 0 5.693-5.104 5.693 5.103 0 5.104 5.693 0-5.693 5.103-5.693M351.591 67.897q-5.641 0-5.641-6.292 0 6.292-5.641 6.292 5.64 0 5.641 6.292 0-6.292 5.641-6.292M352.126 22.5q-6.178 0-6.178-6.89 0 6.89-6.178 6.89 6.178 0 6.178 6.892 0-6.892 6.178-6.892M387.625 431.071q-.976 0-.976-1.089 0 1.089-.977 1.089.977 0 .977 1.09 0-1.09.976-1.09M388.016 385.675q-1.367 0-1.367-1.526 0 1.526-1.368 1.526 1.368 0 1.368 1.525 0-1.525 1.367-1.525M388.407 340.278q-1.758 0-1.758-1.961 0 1.96-1.758 1.961 1.758 0 1.758 1.961 0-1.96 1.758-1.961M388.798 294.881q-2.15 0-2.149-2.397 0 2.397-2.149 2.397 2.15 0 2.149 2.397 0-2.397 2.149-2.397M389.189 249.484q-2.54 0-2.54-2.832 0 2.832-2.54 2.832 2.54 0 2.54 2.833 0-2.833 2.54-2.833M389.58 204.088q-2.931 0-2.931-3.269 0 3.269-2.93 3.269 2.93 0 2.93 3.268 0-3.268 2.931-3.268M389.97 158.691q-3.321 0-3.321-3.705 0 3.705-3.321 3.705 3.321 0 3.321 3.704 0-3.705 3.321-3.704M390.361 113.294q-3.711 0-3.712-4.14 0 4.14-3.711 4.14 3.711 0 3.711 4.14 0-4.14 3.712-4.14M390.752 67.897q-4.103 0-4.103-4.576 0 4.575-4.102 4.576 4.102 0 4.102 4.576 0-4.576 4.103-4.576M391.143 22.5q-4.493 0-4.493-5.011 0 5.01-4.494 5.011 4.494 0 4.494 5.012 0-5.012 4.493-5.012M.635 453.77q-.635 0-.635-.708 0 .708-.635.708.636 0 .635.708 0-.708.635-.708M.952 408.373q-.953 0-.953-1.062 0 1.062-.952 1.062.952 0 .952 1.062 0-1.062.953-1.062M1.27 362.976q-1.27 0-1.27-1.416 0 1.416-1.27 1.416 1.27 0 1.27 1.417 0-1.417 1.27-1.417M1.587 317.579q-1.588 0-1.588-1.77 0 1.77-1.587 1.77Q0 317.579 0 319.35q0-1.77 1.588-1.771M1.905 272.183Q0 272.183 0 270.058q0 2.125-1.904 2.125 1.905 0 1.904 2.124 0-2.124 1.905-2.124M2.222 226.786Q0 226.786 0 224.307q0 2.48-2.223 2.479 2.223 0 2.223 2.479 0-2.48 2.222-2.479M2.54 181.389q-2.54 0-2.54-2.833 0 2.833-2.54 2.833 2.54 0 2.54 2.833 0-2.833 2.54-2.833M2.857 135.992Q0 135.992 0 132.805q0 3.187-2.857 3.187 2.857 0 2.857 3.187 0-3.186 2.857-3.187M3.173 90.596Q0 90.596 0 87.055q0 3.54-3.175 3.54Q0 90.596 0 94.137q0-3.54 3.174-3.54M3.492 45.199Q0 45.199 0 41.304q0 3.895-3.492 3.895Q0 45.199 0 49.094q0-3.895 3.492-3.895M3.808-.198q-3.81 0-3.809-4.25 0 4.25-3.81 4.25Q0-.198 0 4.05q0-4.25 3.81-4.25M41.627 453.77q-.927 0-.928-1.035 0 1.035-.927 1.035.927 0 .927 1.035 0-1.035.928-1.035M42.09 408.373q-1.39 0-1.391-1.553 0 1.553-1.392 1.553 1.392 0 1.392 1.553 0-1.553 1.392-1.553M42.556 362.976q-1.857 0-1.856-2.07 0 2.07-1.856 2.07 1.856 0 1.856 2.07 0-2.07 1.856-2.07M43.019 317.579q-2.32 0-2.32-2.587 0 2.587-2.32 2.587 2.32 0 2.32 2.588 0-2.588 2.32-2.588M43.482 272.183q-2.784 0-2.784-3.105 0 3.105-2.784 3.105 2.784 0 2.784 3.105 0-3.105 2.784-3.105M43.949 226.786q-3.248 0-3.248-3.623 0 3.623-3.248 3.623 3.248 0 3.248 3.623 0-3.623 3.248-3.623M44.412 181.389q-3.712 0-3.712-4.14 0 4.14-3.712 4.14 3.712 0 3.712 4.14 0-4.14 3.712-4.14M44.875 135.992q-4.176 0-4.176-4.657 0 4.657-4.176 4.657 4.176 0 4.176 4.658 0-4.658 4.176-4.658M45.338 90.596q-4.64 0-4.64-5.176 0 5.176-4.64 5.176 4.64 0 4.64 5.175 0-5.175 4.64-5.175M45.801 45.199q-5.103 0-5.104-5.693 0 5.693-5.103 5.693 5.103 0 5.103 5.693 0-5.693 5.104-5.693M46.268-.198q-5.568 0-5.567-6.21 0 6.21-5.568 6.21 5.568 0 5.568 6.21 0-6.21 5.567-6.21M82.622 453.77q-1.221 0-1.221-1.362 0 1.362-1.221 1.362 1.22 0 1.22 1.362 0-1.362 1.222-1.362M83.23 408.373q-1.832 0-1.832-2.043 0 2.043-1.832 2.043 1.832 0 1.832 2.043 0-2.043 1.831-2.043M83.841 362.976q-2.442 0-2.442-2.723 0 2.723-2.442 2.723 2.442 0 2.442 2.724 0-2.724 2.442-2.724M84.453 317.58q-3.053 0-3.053-3.405 0 3.405-3.052 3.405 3.052 0 3.052 3.404 0-3.404 3.053-3.404M85.062 272.183q-3.663 0-3.663-4.086 0 4.086-3.663 4.086 3.663 0 3.663 4.085 0-4.085 3.663-4.085M85.672 226.786q-4.273 0-4.273-4.767 0 4.767-4.274 4.767 4.273 0 4.273 4.766 0-4.766 4.274-4.766M86.284 181.389q-4.884 0-4.884-5.447 0 5.447-4.884 5.447 4.884 0 4.884 5.448 0-5.448 4.884-5.448M86.893 135.992q-5.494 0-5.494-6.128 0 6.128-5.495 6.128 5.495 0 5.495 6.129 0-6.129 5.494-6.129M87.503 90.596q-6.105 0-6.105-6.81 0 6.81-6.105 6.81 6.105 0 6.105 6.809 0-6.81 6.105-6.81M88.115 45.199q-6.716 0-6.716-7.49 0 7.49-6.715 7.49 6.715 0 6.715 7.49 0-7.49 6.716-7.49M88.724-.198q-7.326 0-7.326-8.171 0 8.17-7.326 8.171 7.326 0 7.326 8.171 0-8.17 7.326-8.171M123.614 453.77q-1.514 0-1.514-1.689 0 1.689-1.514 1.689 1.514 0 1.514 1.689 0-1.689 1.514-1.689M124.37 408.373q-2.271 0-2.271-2.533 0 2.533-2.271 2.533 2.271 0 2.271 2.533 0-2.533 2.271-2.533M125.126 362.976q-3.028 0-3.028-3.377 0 3.377-3.028 3.377 3.028 0 3.028 3.378 0-3.378 3.028-3.378M125.885 317.579q-3.785 0-3.785-4.222 0 4.222-3.786 4.222 3.786 0 3.786 4.222 0-4.221 3.785-4.222M126.641 272.183q-4.542 0-4.542-5.067 0 5.067-4.542 5.067 4.542 0 4.542 5.066 0-5.066 4.542-5.066M127.399 226.786q-5.3 0-5.299-5.911 0 5.911-5.299 5.911 5.3 0 5.299 5.911 0-5.911 5.299-5.911M128.155 181.389q-6.056 0-6.056-6.755 0 6.755-6.056 6.755 6.056 0 6.056 6.755 0-6.755 6.056-6.755M128.912 135.992q-6.814 0-6.814-7.599 0 7.599-6.813 7.599 6.813 0 6.813 7.6 0-7.6 6.814-7.6M129.668 90.596q-7.57 0-7.57-8.444 0 8.444-7.571 8.444 7.57 0 7.571 8.443 0-8.443 7.57-8.443M130.426 45.199q-8.327 0-8.327-9.288 0 9.288-8.328 9.288 8.328 0 8.328 9.288 0-9.288 8.327-9.288M131.184-.198q-9.084 0-9.084-10.133 0 10.133-9.084 10.133 9.084 0 9.084 10.133 0-10.133 9.084-10.133M164.606 453.77q-1.806 0-1.807-2.016 0 2.016-1.807 2.016 1.807 0 1.807 2.016 0-2.016 1.807-2.016M165.511 408.373q-2.71 0-2.711-3.023 0 3.023-2.71 3.023 2.71 0 2.71 3.023 0-3.023 2.711-3.023M166.412 362.976q-3.614 0-3.614-4.031 0 4.031-3.614 4.031 3.614 0 3.614 4.032 0-4.032 3.614-4.032M167.317 317.58q-4.518 0-4.518-5.039 0 5.039-4.518 5.039 4.518 0 4.518 5.039 0-5.04 4.518-5.039M168.219 272.183q-5.421 0-5.421-6.047 0 6.047-5.421 6.047 5.421 0 5.421 6.046 0-6.046 5.421-6.046M169.122 226.786q-6.324 0-6.325-7.055 0 7.055-6.324 7.055 6.324 0 6.324 7.055 0-7.055 6.325-7.055M170.027 181.389q-7.228 0-7.228-8.062 0 8.062-7.229 8.062 7.229 0 7.229 8.063 0-8.063 7.228-8.063M170.932 135.992q-8.132 0-8.132-9.07 0 9.07-8.132 9.07 8.132 0 8.132 9.07 0-9.07 8.132-9.07M171.834 90.596q-9.035 0-9.035-10.078 0 10.078-9.035 10.078 9.035 0 9.035 10.078 0-10.078 9.035-10.078M172.737 45.199q-9.939 0-9.939-11.086 0 11.085-9.939 11.086 9.939 0 9.939 11.086 0-11.085 9.939-11.086M173.642-.198q-10.842 0-10.842-12.094 0 12.094-10.843 12.094 10.843 0 10.843 12.094 0-12.094 10.842-12.094M205.454 453.77q-1.954 0-1.954-2.179 0 2.18-1.953 2.179 1.953 0 1.953 2.179 0-2.18 1.954-2.179M206.431 408.373q-2.93 0-2.93-3.269 0 3.27-2.931 3.269 2.931 0 2.931 3.269 0-3.269 2.93-3.269M207.406 362.976q-3.907 0-3.907-4.358 0 4.358-3.907 4.358 3.907 0 3.907 4.358 0-4.358 3.907-4.358M208.383 317.579q-4.884 0-4.884-5.447 0 5.448-4.884 5.447 4.884 0 4.884 5.448 0-5.448 4.884-5.448M209.36 272.183q-5.86 0-5.861-6.537 0 6.537-5.86 6.537 5.86 0 5.86 6.537 0-6.537 5.861-6.537M210.335 226.786q-6.837 0-6.837-7.627 0 7.627-6.838 7.627 6.838 0 6.838 7.627 0-7.627 6.837-7.627M211.312 181.389q-7.814 0-7.814-8.716 0 8.716-7.814 8.716 7.814 0 7.814 8.716 0-8.716 7.814-8.716M212.289 135.992q-8.79 0-8.791-9.805 0 9.805-8.791 9.805 8.791 0 8.791 9.806 0-9.806 8.791-9.806M213.266 90.596q-9.768 0-9.768-10.896 0 10.895-9.768 10.895 9.768 0 9.768 10.896 0-10.895 9.768-10.895M214.244 45.199q-10.746 0-10.745-11.985 0 11.985-10.745 11.985 10.745 0 10.745 11.985 0-11.985 10.745-11.985M215.221-.198q-11.722 0-11.722-13.074 0 13.074-11.722 13.074 11.722 0 11.722 13.074 0-13.074 11.722-13.074M246.005 453.77q-1.807 0-1.807-2.016 0 2.016-1.807 2.016 1.806 0 1.807 2.016 0-2.016 1.807-2.016M246.91 408.373q-2.711 0-2.711-3.023 0 3.023-2.711 3.023 2.71 0 2.711 3.023 0-3.023 2.711-3.023M247.814 362.976q-3.614 0-3.614-4.031 0 4.031-3.614 4.031 3.614 0 3.614 4.032 0-4.032 3.614-4.032M248.717 317.58q-4.518 0-4.518-5.039 0 5.039-4.517 5.039 4.517 0 4.517 5.039 0-5.04 4.518-5.039M249.62 272.183q-5.421 0-5.421-6.047 0 6.047-5.422 6.047 5.422 0 5.422 6.046 0-6.046 5.421-6.046M250.525 226.786q-6.325 0-6.325-7.055 0 7.055-6.325 7.055 6.325 0 6.325 7.055 0-7.055 6.325-7.055M251.427 181.389q-7.228 0-7.228-8.062 0 8.062-7.228 8.062 7.228 0 7.228 8.063 0-8.063 7.228-8.063M252.332 135.992q-8.132 0-8.132-9.07 0 9.07-8.132 9.07 8.132 0 8.132 9.07 0-9.07 8.132-9.07M253.235 90.596q-9.036 0-9.036-10.078 0 10.078-9.035 10.078 9.036 0 9.035 10.078 0-10.078 9.036-10.078M254.14 45.199q-9.939 0-9.939-11.086 0 11.085-9.939 11.086 9.939 0 9.939 11.086 0-11.085 9.939-11.086M255.042-.198q-10.842 0-10.842-12.094 0 12.094-10.843 12.094 10.843 0 10.843 12.094 0-12.094 10.842-12.094M286.415 453.77q-1.514 0-1.514-1.689 0 1.689-1.514 1.689 1.514 0 1.514 1.689 0-1.689 1.514-1.689M287.171 408.373q-2.271 0-2.271-2.533 0 2.533-2.271 2.533 2.271 0 2.271 2.533 0-2.533 2.271-2.533M287.927 362.976q-3.028 0-3.028-3.377 0 3.377-3.028 3.377 3.028 0 3.028 3.378 0-3.378 3.028-3.378M288.683 317.579q-3.785 0-3.785-4.222 0 4.222-3.785 4.222 3.786 0 3.785 4.222 0-4.221 3.785-4.222M289.44 272.183q-4.542 0-4.542-5.067 0 5.067-4.543 5.067 4.543 0 4.543 5.066 0-5.066 4.542-5.066M290.2 226.786q-5.3 0-5.299-5.911 0 5.911-5.299 5.911 5.298 0 5.299 5.911 0-5.911 5.299-5.911M290.956 181.389q-6.056 0-6.056-6.755 0 6.755-6.056 6.755 6.056 0 6.056 6.755 0-6.755 6.056-6.755M291.712 135.992q-6.813 0-6.813-7.599 0 7.599-6.813 7.599 6.813 0 6.813 7.6 0-7.6 6.813-7.6M292.469 90.596q-7.57 0-7.571-8.444 0 8.444-7.57 8.444 7.57 0 7.57 8.443 0-8.443 7.571-8.443M293.225 45.199q-8.327 0-8.327-9.288 0 9.288-8.328 9.288 8.328 0 8.328 9.288 0-9.288 8.327-9.288M293.985-.198q-9.084 0-9.084-10.133 0 10.133-9.085 10.133 9.085 0 9.085 10.133 0-10.133 9.084-10.133M326.819 453.77q-1.221 0-1.221-1.362 0 1.362-1.221 1.362 1.221 0 1.221 1.362 0-1.362 1.221-1.362M327.429 408.373q-1.832 0-1.832-2.043 0 2.043-1.831 2.043 1.831 0 1.831 2.043 0-2.043 1.832-2.043M328.04 362.976q-2.442 0-2.442-2.723 0 2.723-2.442 2.723 2.442 0 2.442 2.724 0-2.724 2.442-2.724M328.652 317.58q-3.053 0-3.053-3.405 0 3.405-3.052 3.405 3.052 0 3.052 3.404 0-3.404 3.053-3.404M329.263 272.183q-3.663 0-3.663-4.086 0 4.086-3.662 4.086 3.662 0 3.662 4.085 0-4.085 3.663-4.085M329.875 226.786q-4.273 0-4.273-4.767 0 4.767-4.274 4.767 4.274 0 4.274 4.766 0-4.766 4.273-4.766M330.483 181.389q-4.884 0-4.884-5.448 0 5.448-4.884 5.448 4.884 0 4.884 5.448 0-5.448 4.884-5.448M331.094 135.992q-5.494 0-5.494-6.128 0 6.128-5.495 6.128 5.495 0 5.495 6.129 0-6.129 5.494-6.129M331.702 90.596q-6.105 0-6.105-6.81 0 6.81-6.105 6.81 6.105 0 6.105 6.809 0-6.81 6.105-6.81M332.314 45.199q-6.716 0-6.716-7.49 0 7.49-6.715 7.49 6.715 0 6.715 7.49 0-7.49 6.716-7.49M332.925-.198q-7.326 0-7.326-8.171 0 8.17-7.326 8.171 7.326 0 7.326 8.171 0-8.17 7.326-8.171M367.227 453.77q-.928 0-.928-1.035 0 1.035-.928 1.035.928 0 .928 1.035 0-1.035.928-1.035M367.69 408.373q-1.392 0-1.392-1.553 0 1.553-1.392 1.553 1.392 0 1.392 1.553 0-1.553 1.392-1.553M368.153 362.976q-1.856 0-1.856-2.07 0 2.07-1.856 2.07 1.856 0 1.856 2.07 0-2.07 1.856-2.07M368.618 317.579q-2.32 0-2.32-2.587 0 2.587-2.319 2.587 2.319 0 2.319 2.588 0-2.588 2.32-2.588M369.083 272.183q-2.784 0-2.784-3.105 0 3.105-2.783 3.105 2.784 0 2.783 3.105 0-3.105 2.784-3.105M369.547 226.786q-3.248 0-3.248-3.623 0 3.623-3.248 3.623 3.248 0 3.248 3.623 0-3.623 3.248-3.623M370.012 181.389q-3.712 0-3.712-4.14 0 4.14-3.712 4.14 3.712 0 3.712 4.14 0-4.14 3.712-4.14M370.475 135.992q-4.176 0-4.176-4.657 0 4.657-4.176 4.657 4.176 0 4.176 4.658 0-4.658 4.176-4.658M370.94 90.596q-4.64 0-4.64-5.176 0 5.176-4.64 5.176 4.64 0 4.64 5.175 0-5.175 4.64-5.175M371.403 45.199q-5.104 0-5.104-5.693 0 5.693-5.104 5.693 5.104 0 5.104 5.693 0-5.693 5.104-5.693M371.866-.198q-5.568 0-5.568-6.21 0 6.21-5.568 6.21 5.568 0 5.568 6.21 0-6.21 5.568-6.21M407.633 453.77q-.635 0-.635-.708 0 .708-.635.708.635 0 .635.708 0-.708.635-.708M407.952 408.373q-.953 0-.953-1.062 0 1.062-.952 1.062.952 0 .952 1.062 0-1.062.953-1.062M408.27 362.976q-1.27 0-1.27-1.416 0 1.416-1.27 1.416 1.27 0 1.27 1.417 0-1.417 1.27-1.417M408.585 317.579q-1.588 0-1.588-1.77 0 1.77-1.587 1.77 1.587 0 1.587 1.771 0-1.77 1.588-1.771M408.903 272.183q-1.904 0-1.904-2.125 0 2.125-1.905 2.125 1.905 0 1.905 2.124 0-2.124 1.904-2.124M409.222 226.786q-2.223 0-2.222-2.479 0 2.48-2.223 2.479 2.223 0 2.223 2.479 0-2.48 2.222-2.479M409.54 181.389q-2.54 0-2.539-2.833 0 2.833-2.54 2.833 2.54 0 2.54 2.833 0-2.833 2.539-2.833M409.855 135.992q-2.857 0-2.857-3.187 0 3.187-2.857 3.187 2.856 0 2.857 3.187 0-3.186 2.857-3.187M410.173 90.596q-3.174 0-3.174-3.541 0 3.54-3.175 3.54 3.175 0 3.175 3.541 0-3.54 3.174-3.54M410.492 45.199q-3.492 0-3.492-3.895 0 3.895-3.492 3.895 3.492 0 3.492 3.895 0-3.895 3.492-3.895M410.81-.198q-3.809 0-3.809-4.249 0 4.25-3.81 4.25 3.81 0 3.81 4.248 0-4.248 3.809-4.249"/></g></svg>